<svg xmlns="http://www.w3.org/2000/svg" xmlns:xlink="http://www.w3.org/1999/xlink" width="375.999" height="351" viewBox="0 0 375.999 351">
  <defs>
    <linearGradient id="linear-gradient" x1="0.005" y1="1.018" x2="1.111" y2="-0.139" gradientUnits="objectBoundingBox">
      <stop offset="0" stop-color="#eef4fe"/>
      <stop offset="0.466" stop-color="#f8fafe"/>
      <stop offset="1" stop-color="#fff"/>
    </linearGradient>
    <linearGradient id="linear-gradient-2" x1="0.891" y1="0.956" x2="0.084" y2="0.016" xlink:href="#linear-gradient"/>
    <linearGradient id="linear-gradient-3" x1="0.856" y1="0.948" x2="0.151" y2="0.06" xlink:href="#linear-gradient"/>
    <linearGradient id="linear-gradient-4" x1="0.952" y1="0.993" x2="0.036" y2="-0.005" xlink:href="#linear-gradient"/>
    <linearGradient id="linear-gradient-5" x1="0.901" y1="0.992" x2="0.023" y2="-0.085" xlink:href="#linear-gradient"/>
    <linearGradient id="linear-gradient-6" x1="0.92" y1="1.018" x2="0.038" y2="-0.069" xlink:href="#linear-gradient"/>
    <linearGradient id="linear-gradient-7" x1="0.184" y1="0.5" x2="1.172" y2="0.5" xlink:href="#linear-gradient"/>
    <linearGradient id="linear-gradient-8" y1="0.5" x2="1" y2="0.5" gradientUnits="objectBoundingBox">
      <stop offset="0" stop-color="#3457b4"/>
      <stop offset="1" stop-color="#6c98e3"/>
    </linearGradient>
    <linearGradient id="linear-gradient-9" x1="0.195" y1="-0.048" x2="1.193" y2="0.927" gradientUnits="objectBoundingBox">
      <stop offset="0" stop-color="#111c3a"/>
      <stop offset="0.012" stop-color="#111d3c"/>
      <stop offset="0.234" stop-color="#1d3167"/>
      <stop offset="0.448" stop-color="#274288"/>
      <stop offset="0.652" stop-color="#2e4da0"/>
      <stop offset="0.841" stop-color="#3254af"/>
      <stop offset="1" stop-color="#3457b4"/>
    </linearGradient>
    <linearGradient id="linear-gradient-10" x1="-0.092" y1="1.24" x2="0.93" y2="0.302" gradientUnits="objectBoundingBox">
      <stop offset="0" stop-color="#111c3a"/>
      <stop offset="0.361" stop-color="#1c2f63"/>
      <stop offset="1" stop-color="#3457b4"/>
    </linearGradient>
    <linearGradient id="linear-gradient-11" x1="1.348" y1="0.275" x2="2.135" y2="0.275" xlink:href="#linear-gradient-8"/>
    <linearGradient id="linear-gradient-12" x1="-2.127" y1="3.045" x2="-0.885" y2="3.045" gradientUnits="objectBoundingBox">
      <stop offset="0" stop-color="#2842a2"/>
      <stop offset="0.244" stop-color="#2a45a4"/>
      <stop offset="0.451" stop-color="#324fac"/>
      <stop offset="0.645" stop-color="#4061b9"/>
      <stop offset="0.829" stop-color="#5479cc"/>
      <stop offset="1" stop-color="#6c98e3"/>
    </linearGradient>
    <linearGradient id="linear-gradient-13" x1="-6.404" y1="0.5" x2="-5.404" y2="0.5" gradientUnits="objectBoundingBox">
      <stop offset="0" stop-color="#2842a2"/>
      <stop offset="1" stop-color="#6c98e3"/>
    </linearGradient>
  </defs>
  <g id="Banner_Image_3" data-name="Banner Image 3" transform="translate(-958.389 -373.222)">
    <path id="Path_1901" data-name="Path 1901" d="M1436.314,493.69c0,84.259-92.29,184.659-176.631,184.659s-174.176-56.731-174.176-140.989,89.836-164.138,174.176-164.138S1436.314,409.431,1436.314,493.69Z" transform="translate(-104.618 0)" fill="#eaf9f8" opacity="0.23"/>
    <g id="Group_3163" data-name="Group 3163" transform="translate(1062.887 423.387)">
      <path id="Path_1902" data-name="Path 1902" d="M1711.181,876.658H1556.318A7.537,7.537,0,0,1,1548.86,868l31.686-204.029a8.5,8.5,0,0,1,8.122-7.054h158.492a5.925,5.925,0,0,1,6,7.054l-31.652,203.8A10.439,10.439,0,0,1,1711.181,876.658Z" transform="translate(-1548.775 -656.921)" fill="#383873"/>
      <path id="Path_1903" data-name="Path 1903" d="M1753.687,661.674a6.514,6.514,0,0,1,.308,3.246l-31.652,203.8a10.44,10.44,0,0,1-10.327,8.882H1557.153a7.484,7.484,0,0,1-4.356-1.393,7.528,7.528,0,0,0,6.831,4.361h154.863a10.44,10.44,0,0,0,10.327-8.882l31.652-203.8A5.97,5.97,0,0,0,1753.687,661.674Z" transform="translate(-1552.085 -660.834)" opacity="0.56" style="isolation: isolate"/>
      <path id="Path_1904" data-name="Path 1904" d="M1889.888,676.921l2.028-13.476a5.48,5.48,0,0,0-5.549-6.524H1726.813a7.863,7.863,0,0,0-7.512,6.524l-2.028,13.476Z" transform="translate(-1687.45 -656.921)" opacity="0.15" style="isolation: isolate"/>
      <path id="Path_1905" data-name="Path 1905" d="M2675.994,680.833l2.65,1.806,1.1-7.3,1.121-7.449a5.971,5.971,0,0,0-2.784-6.213,6.509,6.509,0,0,1,.308,3.246Z" transform="translate(-2476.478 -660.834)" opacity="0.56" style="isolation: isolate"/>
      <path id="Path_1906" data-name="Path 1906" d="M1798.842,703.91a2.476,2.476,0,0,1-2.366,2.055,1.725,1.725,0,0,1-1.747-2.055,2.474,2.474,0,0,1,2.365-2.053A1.725,1.725,0,0,1,1798.842,703.91Z" transform="translate(-1751.177 -693.911)" fill="#e3edfe"/>
      <path id="Path_1907" data-name="Path 1907" d="M1850.965,703.91a2.476,2.476,0,0,1-2.366,2.055,1.725,1.725,0,0,1-1.747-2.055,2.475,2.475,0,0,1,2.365-2.053A1.725,1.725,0,0,1,1850.965,703.91Z" transform="translate(-1794.074 -693.911)" fill="#e3edfe"/>
      <path id="Path_1908" data-name="Path 1908" d="M1903.088,703.91a2.476,2.476,0,0,1-2.366,2.055,1.725,1.725,0,0,1-1.747-2.055,2.475,2.475,0,0,1,2.365-2.053A1.725,1.725,0,0,1,1903.088,703.91Z" transform="translate(-1836.971 -693.911)" fill="#e3edfe"/>
    </g>
    <g id="Group_3166" data-name="Group 3166" transform="translate(1076.156 455.254)">
      <g id="Group_3164" data-name="Group 3164" transform="translate(0 3.142)" opacity="0.7">
        <path id="Path_1909" data-name="Path 1909" d="M1645.352,1027.447a1.661,1.661,0,0,0-1.594,1.392,1.165,1.165,0,0,0,1.054,1.361l-21.07,147.228h.3l21.071-147.228a1.651,1.651,0,0,0,1.439-1.362A1.183,1.183,0,0,0,1645.352,1027.447Z" transform="translate(-1623.742 -996.937)" fill="#111c3a" opacity="0.3"/>
        <path id="Path_1910" data-name="Path 1910" d="M1806.158,1063.326a1.661,1.661,0,0,0-1.594,1.392,1.165,1.165,0,0,0,1.053,1.361l-20.173,140.88h.3l20.173-140.88a1.651,1.651,0,0,0,1.439-1.362A1.182,1.182,0,0,0,1806.158,1063.326Z" transform="translate(-1756.824 -1026.472)" fill="#111c3a" opacity="0.3"/>
        <path id="Path_1911" data-name="Path 1911" d="M1971.664,911.222a1.661,1.661,0,0,0-1.594,1.392,1.166,1.166,0,0,0,1.054,1.362l-23.976,167.774h.3l23.976-167.774a1.652,1.652,0,0,0,1.439-1.362A1.182,1.182,0,0,0,1971.664,911.222Z" transform="translate(-1889.906 -901.264)" fill="#111c3a" opacity="0.3"/>
        <path id="Path_1912" data-name="Path 1912" d="M2134.774,854.9a1.661,1.661,0,0,0-1.594,1.392,1.165,1.165,0,0,0,1.054,1.361l-25.384,177.73h.3l25.384-177.73a1.652,1.652,0,0,0,1.439-1.361A1.183,1.183,0,0,0,2134.774,854.9Z" transform="translate(-2022.987 -854.904)" fill="#111c3a" opacity="0.3"/>
        <path id="Path_1913" data-name="Path 1913" d="M2293.675,966.928a1.662,1.662,0,0,0-1.594,1.392,1.166,1.166,0,0,0,1.054,1.362L2270.553,1127.6h.3l22.582-157.918a1.651,1.651,0,0,0,1.439-1.362A1.182,1.182,0,0,0,2293.675,966.928Z" transform="translate(-2156.069 -947.119)" fill="#111c3a" opacity="0.3"/>
        <path id="Path_1914" data-name="Path 1914" d="M2457.518,930.718a1.182,1.182,0,0,0-1.2-1.392,1.661,1.661,0,0,0-1.594,1.392,1.165,1.165,0,0,0,1.053,1.361l-23.522,164.565h.3l23.522-164.565A1.651,1.651,0,0,0,2457.518,930.718Z" transform="translate(-2289.151 -916.166)" fill="#111c3a" opacity="0.3"/>
      </g>
      <path id="Path_1915" data-name="Path 1915" d="M1810.837,839.636l-48.151,0,.354-2.5,48.151,0Z" transform="translate(-1738.093 -837.136)" fill="#6c98e3"/>
      <path id="Path_1916" data-name="Path 1916" d="M1782.786,874.034l-24.958,0,.354-2.5,24.958,0Z" transform="translate(-1734.095 -865.451)" fill="#6c98e3"/>
      <path id="Path_1917" data-name="Path 1917" d="M1837.173,951.213a71.9,71.9,0,0,0-11.758,6.883c-3.679,2.66-6.94,5.851-10.594,8.536-7.252,5.331-14.566,5.732-21.315,1.681-13.661-8.2-19.576-29.4-40.846-21.613-20.926,7.663-29.5,32.962-50.552,40.154-12.024,4.108-18.226-2.277-26.179-8.147-3.865-2.853-7.757-4.172-12.132-3.807l-.219,1.554c8.186-.572,12.978,5.806,19.862,10.19,6.044,3.849,13.277,3.946,20.677.976,20.552-8.248,29.2-33.762,50.657-40.114,23.582-6.981,26.546,23.554,46.6,25.2,7.6.625,13.621-4.285,19.5-9.221A78.407,78.407,0,0,1,1836.92,953Z" transform="translate(-1656.527 -925.936)" fill="#111c3a" opacity="0.2"/>
      <g id="Group_3165" data-name="Group 3165" transform="translate(0.179 13.072)">
        <path id="Path_1918" data-name="Path 1918" d="M1810.531,915.339a72.326,72.326,0,0,0-16.22,8.807c-3.679,2.66-6.941,5.851-10.594,8.536-7.252,5.331-14.566,5.732-21.315,1.681-13.661-8.2-19.576-29.4-40.845-21.613-20.926,7.663-29.5,32.962-50.552,40.154-12.024,4.108-18.226-2.277-26.179-8.147-5.923-4.372-11.9-5.169-19.6-1.767a.711.711,0,1,0,.577,1.3c12.648-5.59,17.969,2.955,26.532,8.409,6.043,3.849,13.277,3.946,20.677.976,20.552-8.248,29.2-33.762,50.657-40.114,23.582-6.981,26.546,23.554,46.6,25.2,7.6.625,13.621-4.285,19.5-9.221a76.806,76.806,0,0,1,20.422-12.482C1813.571,915.675,1813.781,914.076,1810.531,915.339Z" transform="translate(-1624.753 -911.06)" fill="#ff9a7b"/>
      </g>
    </g>
    <g id="Group_3168" data-name="Group 3168" transform="translate(1013.992 521.33)">
      <path id="Path_1919" data-name="Path 1919" d="M1381.864,1269.207H1274.226a1.652,1.652,0,0,1-1.674-1.939l7.5-54.514a2.3,2.3,0,0,1,2.207-1.939h107.637a1.653,1.653,0,0,1,1.674,1.939l-7.5,54.514A2.3,2.3,0,0,1,1381.864,1269.207Z" transform="translate(-1272.534 -1210.815)" fill="url(#linear-gradient)"/>
      <path id="Path_1920" data-name="Path 1920" d="M1348.288,1240.829H1341.8l.452-3.286h6.483Z" transform="translate(-1329.544 -1232.817)" fill="#b3cdfa"/>
      <path id="Path_1921" data-name="Path 1921" d="M1341.238,1292.16h-6.483l.452-3.286h6.483Z" transform="translate(-1323.742 -1275.071)" fill="#b3cdfa"/>
      <path id="Path_1922" data-name="Path 1922" d="M1334.187,1343.49H1327.7l.452-3.286h6.483Z" transform="translate(-1317.939 -1317.325)" fill="#b3cdfa"/>
      <path id="Path_1923" data-name="Path 1923" d="M1327.136,1394.82h-6.483l.452-3.286h6.483Z" transform="translate(-1312.136 -1359.578)" fill="#b3cdfa"/>
      <path id="Path_1924" data-name="Path 1924" d="M1320.086,1446.151H1313.6l.452-3.286h6.483Z" transform="translate(-1306.333 -1401.832)" fill="#b3cdfa"/>
      <path id="Path_1925" data-name="Path 1925" d="M1313.035,1497.481h-6.483l.452-3.286h6.483Z" transform="translate(-1300.531 -1444.085)" fill="#b3cdfa"/>
      <path id="Path_1926" data-name="Path 1926" d="M1722.354,1317.5h-33.881l.452-3.286h33.881Z" transform="translate(-1614.853 -1295.926)" fill="#bbd2fb"/>
      <path id="Path_1927" data-name="Path 1927" d="M1715.153,1369.919h-33.881l.452-3.286h33.881Z" transform="translate(-1608.926 -1339.08)" fill="#bbd2fb"/>
      <path id="Path_1928" data-name="Path 1928" d="M1693.484,1422.343h-19.413l.452-3.287h19.413Z" transform="translate(-1603 -1382.234)" fill="#bbd2fb"/>
      <path id="Path_1929" data-name="Path 1929" d="M1441.163,1266.048h0a23.932,23.932,0,0,0-15.644,6.125,24.309,24.309,0,0,0-8.165,14.788c-1.588,11.55,6.5,20.913,18.058,20.913a23.931,23.931,0,0,0,15.645-6.125,24.306,24.306,0,0,0,8.164-14.788h0C1460.809,1275.411,1452.725,1266.048,1441.163,1266.048Zm6.259,31.491a17.12,17.12,0,0,1-11.191,4.382c-8.27,0-14.054-6.7-12.918-14.96a17.388,17.388,0,0,1,5.841-10.579,17.12,17.12,0,0,1,11.191-4.381h0c8.27,0,14.053,6.7,12.917,14.96h0A17.388,17.388,0,0,1,1447.422,1297.539Z" transform="translate(-1391.558 -1256.282)" fill="#b3cdfa" opacity="0.3"/>
      <g id="Group_3167" data-name="Group 3167" transform="translate(21.637 8.283)">
        <path id="Path_1930" data-name="Path 1930" d="M1456.856,1263.609h0l.819-5.953h0a23.931,23.931,0,0,0-15.644,6.125l3.635,4.209A17.119,17.119,0,0,1,1456.856,1263.609Z" transform="translate(-1433.666 -1257.656)" fill="#111c3a"/>
        <path id="Path_1931" data-name="Path 1931" d="M1526.611,1257.656l-.819,5.953c8.27,0,14.054,6.7,12.918,14.96h0a17.387,17.387,0,0,1-5.84,10.578l3.635,4.209a24.306,24.306,0,0,0,8.165-14.788h0C1546.257,1267.019,1538.172,1257.656,1526.611,1257.656Z" transform="translate(-1502.603 -1257.656)" fill="#3457b4"/>
        <path id="Path_1932" data-name="Path 1932" d="M1401.861,1307.084a17.386,17.386,0,0,1,5.84-10.578l-3.635-4.21a24.308,24.308,0,0,0-8.165,14.788h5.959Z" transform="translate(-1395.703 -1286.171)" fill="#b3cdfa"/>
        <path id="Path_1933" data-name="Path 1933" d="M1425.044,1386.5a17.119,17.119,0,0,1-11.191,4.382c-8.27,0-14.054-6.7-12.918-14.96h-5.959c-1.588,11.55,6.5,20.913,18.058,20.913a23.932,23.932,0,0,0,15.644-6.125Z" transform="translate(-1394.777 -1355.012)" fill="#20c3c5"/>
      </g>
    </g>
    <g id="Group_3169" data-name="Group 3169" transform="translate(1051.575 593.521)">
      <path id="Path_1934" data-name="Path 1934" d="M1571.625,1672.044l-83.407-.016a3.247,3.247,0,0,1-3.312-3.819l6.533-45.318a4.589,4.589,0,0,1,4.413-3.818l83.407.016a3.247,3.247,0,0,1,3.312,3.819l-6.533,45.318A4.589,4.589,0,0,1,1571.625,1672.044Z" transform="translate(-1484.866 -1619.074)" fill="url(#linear-gradient-2)"/>
      <path id="Path_1935" data-name="Path 1935" d="M1604.717,1655.825l-36.642-.007.465-3.225,36.643.007Z" transform="translate(-1553.347 -1646.666)" fill="#e3edfe"/>
      <path id="Path_1936" data-name="Path 1936" d="M1580.746,1695.05l-18.321,0,.465-3.225,18.321,0Z" transform="translate(-1548.697 -1678.958)" fill="#e3edfe"/>
      <path id="Path_1937" data-name="Path 1937" d="M1515.631,1761.924c3.486-3.915,7.353-8.942,11.212-12.511,1.36-1.258,2.883-2.562,4.634-2.817,2.473-.36,4.344,1.463,5.892,3.117,1.852,1.978,3.909,3.978,6.71,4.509,3.45.653,7.206-1.055,10.615-2.767,2.969-1.492,6-3.085,8.308-5.512,2.222-2.337,3.719-5.387,6.407-7.162a3.643,3.643,0,0,1,1.533-.646,2.655,2.655,0,0,1,2.278,1.091c1.438,1.711,1.688,4.156,2.24,6.382s1.688,4.539,3.968,5.065c2.968.684,6.128-1.982,8.077-4.678s3.622-5.861,6.568-7.413a2.918,2.918,0,0,1,2.8-.262c.837.549.854,1.76.8,2.815q-.338,6.568-.676,13.136c-.094,1.819-.6,6.179-1.878,7.671Z" transform="translate(-1510.186 -1717.016)" fill="#cf0001"/>
    </g>
    <g id="Group_3170" data-name="Group 3170" transform="translate(1156.408 546.954)">
      <path id="Path_1938" data-name="Path 1938" d="M2148.78,1471.411H2085.3a7.941,7.941,0,0,1-8.038-9.5l15.1-96.692a11.5,11.5,0,0,1,10.971-9.5h63.476a7.941,7.941,0,0,1,8.039,9.5l-15.1,96.692A11.5,11.5,0,0,1,2148.78,1471.411Z" transform="translate(-2077.152 -1355.728)" fill="url(#linear-gradient-3)"/>
      <path id="Path_1939" data-name="Path 1939" d="M2180.088,1485.055h-3.807l10.178-65.2h3.807Z" transform="translate(-2158.736 -1408.519)" fill="#e1ebfd"/>
      <path id="Path_1940" data-name="Path 1940" d="M2235.283,1485.066h-3.807l10.178-65.2h3.807Z" transform="translate(-2204.161 -1408.528)" fill="#e1ebfd"/>
      <path id="Path_1941" data-name="Path 1941" d="M2290.477,1485.077h-3.807l10.178-65.2h3.807Z" transform="translate(-2249.586 -1408.536)" fill="#e1ebfd"/>
      <path id="Path_1942" data-name="Path 1942" d="M2345.67,1485.087h-3.807l10.178-65.2h3.807Z" transform="translate(-2295.01 -1408.545)" fill="#e1ebfd"/>
      <path id="Path_1943" data-name="Path 1943" d="M2400.865,1485.1h-3.807l10.178-65.2h3.807Z" transform="translate(-2340.436 -1408.554)" fill="#e1ebfd"/>
      <path id="Path_1944" data-name="Path 1944" d="M2456.059,1485.108h-3.807l10.178-65.2h3.807Z" transform="translate(-2385.86 -1408.563)" fill="#e1ebfd"/>
      <path id="Path_1945" data-name="Path 1945" d="M2180.088,1654.956h-3.807l4.48-28.7h3.807Z" transform="translate(-2158.736 -1578.419)" fill="#cf0001"/>
      <path id="Path_1946" data-name="Path 1946" d="M2235.283,1599.47h-3.807l6.341-40.62h3.807Z" transform="translate(-2204.161 -1522.932)" fill="#cf0001"/>
      <path id="Path_1947" data-name="Path 1947" d="M2290.477,1571.263h-3.807l7.288-46.682h3.807Z" transform="translate(-2249.586 -1494.723)" fill="#cf0001"/>
      <path id="Path_1948" data-name="Path 1948" d="M2345.67,1599.491h-3.807l6.341-40.62h3.807Z" transform="translate(-2295.01 -1522.95)" fill="#cf0001"/>
      <path id="Path_1949" data-name="Path 1949" d="M2400.865,1544.007h-3.807l8.2-52.541h3.807Z" transform="translate(-2340.436 -1467.463)" fill="#cf0001"/>
      <path id="Path_1950" data-name="Path 1950" d="M2456.059,1513.917h-3.807l9.212-59.007h3.807Z" transform="translate(-2385.86 -1437.371)" fill="#cf0001"/>
      <path id="Path_1951" data-name="Path 1951" d="M2172.248,1849.536a9.323,9.323,0,0,1-8.9,7.843,6.612,6.612,0,0,1-6.653-7.845,9.324,9.324,0,0,1,8.9-7.843A6.612,6.612,0,0,1,2172.248,1849.536Z" transform="translate(-2142.548 -1755.759)" fill="#89ade9"/>
      <path id="Path_1952" data-name="Path 1952" d="M2305.955,1850.836l-33.7-.007.3-2.113,33.7.007Z" transform="translate(-2237.722 -1761.543)" fill="#e1ebfd"/>
      <path id="Path_1953" data-name="Path 1953" d="M2300.975,1885.625l-33.7-.008.3-2.113,33.7.008Z" transform="translate(-2233.624 -1790.18)" fill="#e1ebfd"/>
      <path id="Path_1954" data-name="Path 1954" d="M2276.622,1920.412l-14.326,0,.3-2.113,14.326,0Z" transform="translate(-2229.525 -1818.818)" fill="#e1ebfd"/>
    </g>
    <g id="Group_3173" data-name="Group 3173" transform="translate(1218.918 445.528)">
      <path id="Path_1955" data-name="Path 1955" d="M2509.231,782.148l-73.5-.013a2.986,2.986,0,0,0-2.851,2.512l-2.535,17.765a2.118,2.118,0,0,0,2.131,2.513l73.5.013a2.986,2.986,0,0,0,2.851-2.512l2.535-17.765A2.117,2.117,0,0,0,2509.231,782.148Z" transform="translate(-2430.317 -782.135)" fill="url(#linear-gradient-4)"/>
      <g id="Group_3172" data-name="Group 3172" transform="translate(9.606 6.083)">
        <path id="Path_1956" data-name="Path 1956" d="M2494.792,821.6a6.137,6.137,0,0,1-5.854,5.067,4.237,4.237,0,0,1-4.29-5.067,6.138,6.138,0,0,1,5.854-5.067A4.237,4.237,0,0,1,2494.792,821.6Z" transform="translate(-2484.588 -816.534)" fill="#3457b4"/>
        <g id="Group_3171" data-name="Group 3171" transform="translate(2.062 2.8)">
          <path id="Path_1957" data-name="Path 1957" d="M2498.162,837.153l-1.923-2.273.99-.871,1.121,1.272,3.385-2.915.8,1Z" transform="translate(-2496.239 -832.366)" fill="#fff"/>
        </g>
      </g>
      <path id="Path_1958" data-name="Path 1958" d="M2632.58,826.492l-39.407,0,.289-2.047,39.493,0Z" transform="translate(-2564.348 -816.965)" fill="#6c98e3"/>
      <path id="Path_1959" data-name="Path 1959" d="M2618.195,854.643l-29,0,.289-2.046h29.084Z" transform="translate(-2561.076 -840.138)" fill="#6c98e3"/>
    </g>
    <g id="Group_3176" data-name="Group 3176" transform="translate(1027.552 449.157)">
      <path id="Path_1960" data-name="Path 1960" d="M1436.724,802.673l-78.849-.014a3.2,3.2,0,0,0-3.058,2.694l-5.645,39.392a2.272,2.272,0,0,0,2.286,2.7l78.849.014a3.2,3.2,0,0,0,3.058-2.695l5.645-39.392A2.271,2.271,0,0,0,1436.724,802.673Z" transform="translate(-1349.144 -802.659)" fill="url(#linear-gradient-5)"/>
      <g id="Group_3174" data-name="Group 3174" transform="translate(13.23 6.525)">
        <path id="Path_1961" data-name="Path 1961" d="M1434.837,845a6.584,6.584,0,0,1-6.28,5.436,4.546,4.546,0,0,1-4.6-5.436,6.584,6.584,0,0,1,6.28-5.435A4.546,4.546,0,0,1,1434.837,845Z" transform="translate(-1423.89 -839.561)" fill="#e3edfe"/>
      </g>
      <g id="Group_3175" data-name="Group 3175" transform="translate(9.936 26.157)">
        <path id="Path_1962" data-name="Path 1962" d="M1416.228,956.018a6.584,6.584,0,0,1-6.28,5.436,4.546,4.546,0,0,1-4.6-5.436,6.584,6.584,0,0,1,6.28-5.436A4.546,4.546,0,0,1,1416.228,956.018Z" transform="translate(-1405.281 -950.582)" fill="#cf0001"/>
      </g>
      <path id="Path_1963" data-name="Path 1963" d="M1582.649,850.244l-42.274,0,.311-2.2,42.366,0Z" transform="translate(-1506.527 -840.023)" fill="#b8e3e2"/>
      <path id="Path_1964" data-name="Path 1964" d="M1567.218,880.443l-31.107,0,.31-2.2h31.2Z" transform="translate(-1503.017 -864.882)" fill="#b8e3e2"/>
      <path id="Path_1965" data-name="Path 1965" d="M1537.069,962.591l-14.228,0,.31-2.2,14.32,0Z" transform="translate(-1492.097 -932.504)" fill="#ff9a7b"/>
      <path id="Path_1966" data-name="Path 1966" d="M1540.488,992.79l-21.912,0,.311-2.2h22Z" transform="translate(-1488.587 -957.363)" fill="#ff9a7b"/>
    </g>
    <g id="Group_3178" data-name="Group 3178" transform="translate(1144.062 501.955)">
      <path id="Path_1967" data-name="Path 1967" d="M2075.229,1137.687h-66.467a1.328,1.328,0,0,1-1.345-1.565l4.716-33.312a1.865,1.865,0,0,1,1.788-1.565h66.467a1.328,1.328,0,0,1,1.345,1.565l-4.716,33.312A1.865,1.865,0,0,1,2075.229,1137.687Z" transform="translate(-2007.401 -1101.244)" fill="url(#linear-gradient-6)"/>
      <path id="Path_1968" data-name="Path 1968" d="M2055.116,1119.977h-4.046l.29-2.051h4.047Z" transform="translate(-2043.34 -1114.976)" fill="#e3edfe"/>
      <path id="Path_1969" data-name="Path 1969" d="M2252.67,1138.564h-31.093l.291-2.051h31.093Z" transform="translate(-2183.668 -1130.276)" fill="#b3cdfa"/>
      <path id="Path_1970" data-name="Path 1970" d="M2248.042,1171.282H2216.95l.29-2.051h31.093Z" transform="translate(-2179.86 -1157.209)" fill="#b3cdfa"/>
      <path id="Path_1971" data-name="Path 1971" d="M2243.415,1204h-31.093l.29-2.051h31.093Z" transform="translate(-2176.052 -1184.142)" fill="#b3cdfa"/>
      <path id="Path_1972" data-name="Path 1972" d="M2225.51,1236.719h-17.816l.291-2.051H2225.8Z" transform="translate(-2172.243 -1211.075)" fill="#b3cdfa"/>
      <path id="Path_1973" data-name="Path 1973" d="M2050.585,1152.013h-4.046l.29-2.051h4.047Z" transform="translate(-2039.611 -1141.347)" fill="#e3edfe"/>
      <path id="Path_1974" data-name="Path 1974" d="M2046.054,1184.049h-4.046l.29-2.051h4.046Z" transform="translate(-2035.883 -1167.718)" fill="#e3edfe"/>
      <path id="Path_1975" data-name="Path 1975" d="M2041.524,1216.084h-4.046l.29-2.051h4.046Z" transform="translate(-2032.154 -1194.089)" fill="#e3edfe"/>
      <path id="Path_1976" data-name="Path 1976" d="M2036.993,1248.12h-4.046l.29-2.051h4.046Z" transform="translate(-2028.425 -1220.46)" fill="#e3edfe"/>
      <path id="Path_1977" data-name="Path 1977" d="M2032.462,1280.156h-4.046l.29-2.051h4.046Z" transform="translate(-2024.696 -1246.831)" fill="#e3edfe"/>
      <g id="Group_3177" data-name="Group 3177" transform="translate(13.708 6.682)">
        <path id="Path_1978" data-name="Path 1978" d="M2143.531,1139.032l-1.347,8.853,0,0,5.767,6.263a10.185,10.185,0,0,0,3.747-6.242c0-.009,0-.017.005-.026C2152.452,1143,2148.791,1139.032,2143.531,1139.032Z" transform="translate(-2132.036 -1139.032)" fill="#3457b4"/>
        <path id="Path_1979" data-name="Path 1979" d="M2089.53,1141.617a10.184,10.184,0,0,0-3.749,6.251l9.52.021v0l1.347-8.853A11.4,11.4,0,0,0,2089.53,1141.617Z" transform="translate(-2085.616 -1139.032)" fill="#3e6bab"/>
        <path id="Path_1980" data-name="Path 1980" d="M2094.474,1191.456h-.005l-9.52-.022c0,.006,0,.011,0,.017-.744,4.89,2.917,8.853,8.177,8.853a11.4,11.4,0,0,0,7.119-2.585Z" transform="translate(-2084.849 -1182.168)" fill="#20c3c5"/>
      </g>
    </g>
    <g id="Group_3180" data-name="Group 3180" transform="translate(1139.455 555.242)">
      <path id="Path_1981" data-name="Path 1981" d="M2003.341,1413.506a13.215,13.215,0,0,1-12.606,10.911,9.124,9.124,0,0,1-9.236-10.911A13.215,13.215,0,0,1,1994.1,1402.6,9.125,9.125,0,0,1,2003.341,1413.506Z" transform="translate(-1981.369 -1402.596)" fill="url(#linear-gradient-7)"/>
      <path id="Path_1982" data-name="Path 1982" d="M2013.873,1408.935a9.311,9.311,0,0,1,3.126,8.8,13.216,13.216,0,0,1-12.606,10.911,9.8,9.8,0,0,1-4.625-1.121,9.483,9.483,0,0,0,6.11,2.11,13.215,13.215,0,0,0,12.605-10.91A9.163,9.163,0,0,0,2013.873,1408.935Z" transform="translate(-1996.511 -1407.814)" fill="#b3cdfa"/>
      <g id="Group_3179" data-name="Group 3179" transform="translate(4.441 6.028)">
        <path id="Path_1983" data-name="Path 1983" d="M2010.6,1446.994l-4.141-4.893,2.132-1.876,2.413,2.739,7.288-6.277,1.729,2.154Z" transform="translate(-2006.457 -1436.687)" fill="#20c3c5"/>
      </g>
    </g>
    <path id="Path_1984" data-name="Path 1984" d="M1246.757,1538.5l47.4-10.389,7.884-.852,8.343-3.606a3.786,3.786,0,0,0,1.98-1.987l1.052-2.459a1.413,1.413,0,0,0-.811-2.054l-1.041-.321h0a2.971,2.971,0,0,0-2.78-1.531l-8.532.511-1.936-1.109,1.887-4.067a2.127,2.127,0,0,0-.873-2.74h0l-4.437,5.488-3.177,6.746-26.117,3.427-18.885-3.427Z" transform="translate(-237.296 -934.034)" fill="#ffcebd"/>
    <path id="Path_1985" data-name="Path 1985" d="M1312.544,1578.621l.584-1.366a5.524,5.524,0,0,0-3.3.259c-5.413,1.649-9.186,4.012-15.172,4.152-5.515.129-11.163-.353-16.439,1.258-2.739.836-5.315,2.223-8.134,2.723q-.232.041-.464.074c-2.931.418-5.922-.084-8.885-.286a53.642,53.642,0,0,0-13.313,1.038l-.49,8.981,47.4-10.39,7.885-.851,8.343-3.606A3.787,3.787,0,0,0,1312.544,1578.621Z" transform="translate(-237.472 -990.989)" fill="#a58877" opacity="0.2"/>
    <path id="Path_1986" data-name="Path 1986" d="M1733.89,2212.372s1.3,9.287-1.909,13.538c-2.959,3.916,19.647,0,19.647,0s-7.538-2.086-8.527-4.251c-.813-1.781,1.639-10.674,1.639-10.674Z" transform="translate(-636.447 -1512.798)" fill="#383873"/>
    <path id="Path_1987" data-name="Path 1987" d="M1740.527,2231.423c-.22-.845-.6-1.643-.8-2.492-.446-1.88.01-3.865-.267-5.777a41.174,41.174,0,0,0-1.093-3.98,14.432,14.432,0,0,1-.4-3.293l-4.079.521s1.3,9.287-1.91,13.538C1730.517,2231.877,1735.31,2231.9,1740.527,2231.423Z" transform="translate(-636.447 -1516.829)" opacity="0.56" style="isolation: isolate"/>
    <path id="Path_1988" data-name="Path 1988" d="M1729.774,2273.155v10.086a2.356,2.356,0,0,0,2.358,2.355h29.384a4.368,4.368,0,0,0,4.37-4.366v-.919l-8.97-1.149-12.881-6.664-2.53-1.149-1.84,2.758-6.44.23-2.219-1.773A.758.758,0,0,0,1729.774,2273.155Z" transform="translate(-634.851 -1562.49)" fill="url(#linear-gradient-8)"/>
    <path id="Path_1989" data-name="Path 1989" d="M1761.516,2325.834h-29.384a2.356,2.356,0,0,1-2.358-2.355v1.449a2.356,2.356,0,0,0,2.358,2.355h29.384a4.368,4.368,0,0,0,4.37-4.366V2322l-.053-.007A4.354,4.354,0,0,1,1761.516,2325.834Z" transform="translate(-634.851 -1604.177)" fill="#fff"/>
    <path id="Path_1990" data-name="Path 1990" d="M1863.516,1949.6a17.564,17.564,0,0,1,8.319,8.237c1.9,4.329,12.511-14.984,12.511-14.984s-3.663,4.473-8.692,3.9c-2.087-.237-5.108-5.738-5.108-5.738Z" transform="translate(-744.921 -1290.564)" fill="#383873"/>
    <path id="Path_1991" data-name="Path 1991" d="M1877.836,1979.642a18.8,18.8,0,0,1-11.592-4.588c-.192-.168-.364-.355-.55-.53l-2.177,2.658a17.565,17.565,0,0,1,8.318,8.237c.94,2.147,4.025-1.521,6.9-5.764C1878.432,1979.656,1878.133,1979.652,1877.836,1979.642Z" transform="translate(-744.922 -1318.151)" opacity="0.56" style="isolation: isolate"/>
    <path id="Path_1992" data-name="Path 1992" d="M1505.512,1820.775l35.077,6.3a13.97,13.97,0,0,1,8.379,14.044l-6.107,54.866h-11.318s.854-19.133-1.819-33.872c-1.03-5.678.126-11.079.793-14.568.288-1.508-6.106-.7-6.106-.7l-37.531-2.261-.205-12.393Z" transform="translate(-434.779 -1191.589)" fill="url(#linear-gradient-9)"/>
    <path id="Path_1993" data-name="Path 1993" d="M1537.679,1919.525a49.186,49.186,0,0,0-.479-7.191,106.911,106.911,0,0,1,1.757-34.107,21.877,21.877,0,0,0,.782-6.083c-.372-5.314-4.875-9.4-9.511-12.025-6.761-3.834-14.376-5.846-21.9-7.819l-11.16-2.929-10.5,6.364.205,12.393,37.531,2.261s6.394-.811,6.106.7c-.667,3.489-1.823,8.89-.793,14.568,2.673,14.738,1.819,33.872,1.819,33.872Z" transform="translate(-434.779 -1215.126)" fill="#3457b4" opacity="0.4"/>
    <path id="Path_1994" data-name="Path 1994" d="M1149.052,1555.712l-1.515,8.548a24.312,24.312,0,0,0,1.878,14.461l20.776,44.856h30.086l16.67-16.861-23.435-17.726a25.238,25.238,0,0,1-7.673-9.515l-8.259-17.823a16.164,16.164,0,0,0-14.667-9.363h-9.773A4.149,4.149,0,0,0,1149.052,1555.712Z" transform="translate(-155.362 -970.578)" fill="#fff"/>
    <path id="Path_1995" data-name="Path 1995" d="M1343.219,1744.167l38.475-13.614a5.615,5.615,0,0,1,5.585,1.081l41.435,37.907-7.707,8.736a75.537,75.537,0,0,0-19.686-12.42c-7.475-3.192-12.272-8.9-14.15-13.439l-28.069,17.776-35.861-10.873h0C1327.577,1750.88,1334.216,1747.186,1343.219,1744.167Z" transform="translate(-300.273 -1117.055)" fill="url(#linear-gradient-10)"/>
    <path id="Path_1996" data-name="Path 1996" d="M1896.733,1922.331l7.814,6.387a2.359,2.359,0,0,0,3.318-.332l18.606-22.721a4.363,4.363,0,0,0-.615-6.144l-.712-.582-6.57,6.208-13.319,5.74-2.492,1.229.971,3.169-3.9,5.125-2.779.592A.757.757,0,0,0,1896.733,1922.331Z" transform="translate(-772.029 -1255.931)" fill="url(#linear-gradient-11)"/>
    <path id="Path_1997" data-name="Path 1997" d="M1964.189,1899.521l-.712-.582-.431.407a4.349,4.349,0,0,1,.369,5.9l-18.606,22.72a2.342,2.342,0,0,1-1.777.853,2.352,2.352,0,0,0,3.166-.432l18.606-22.721A4.363,4.363,0,0,0,1964.189,1899.521Z" transform="translate(-810.363 -1255.931)" fill="#fff"/>
    <path id="Path_1998" data-name="Path 1998" d="M1421.007,1835.338l2.525-2.863a18.256,18.256,0,0,1-1.937-1.456c-2.158-1.886-3.853-4.245-5.939-6.21-3.781-3.56-8.7-5.693-12.663-9.049-4.2-3.556-7.18-8.354-11.242-12.067-2.268-2.074-5.006-3.844-8.069-4.109-3.981-.344-7.67,1.863-11.188,3.756a87.592,87.592,0,0,1-34.072,10.112,29.706,29.706,0,0,1-10.415-.568,15.853,15.853,0,0,1-2.1-.757,28.271,28.271,0,0,0-2.667,4.253l35.861,10.873,28.069-17.776c1.878,4.537,6.675,10.247,14.15,13.439A75.535,75.535,0,0,1,1421.007,1835.338Z" transform="translate(-300.273 -1174.116)" fill="#3457b4" opacity="0.4"/>
    <path id="Path_1999" data-name="Path 1999" d="M1165.436,1481.081s3.225,8.6,1.9,12.68l13.409.161s-.368-5.381,2.849-6.066Z" transform="translate(-170.4 -911.961)" fill="#ffcebd"/>
    <path id="Path_2000" data-name="Path 2000" d="M1177.754,1363.375a15.71,15.71,0,0,1,.49,7.958l3.946,6.629a1.3,1.3,0,0,1-1.113,1.961h0l.749,6.042a4.491,4.491,0,0,1-4.791,5.03l-6.936-.511-11.341-5.043-1.585-6.194a9.743,9.743,0,0,1,6.566-11.432Z" transform="translate(-163.403 -815.068)" fill="#ffcebd"/>
    <path id="Path_2001" data-name="Path 2001" d="M1211.129,1606.854l8,14.448,14.71-9.07-8.177-13.712a8.382,8.382,0,0,0-10.7-3.322h0A8.366,8.366,0,0,0,1211.129,1606.854Z" transform="translate(-207.143 -1005.27)" fill="#fff"/>
    <path id="Path_2002" data-name="Path 2002" d="M1181.827,1385.966l-.011-.09c-.236-1.9-.542-3.813-.706-5.719a3.777,3.777,0,0,0-2.787.747,5.661,5.661,0,0,0-.709,1.107,3.467,3.467,0,0,1-2.339,1.725,2.474,2.474,0,0,1-1.548-.091,3.1,3.1,0,0,1-1.038-.834,14,14,0,0,1-2.539-4.811,17.263,17.263,0,0,1-.875-5.589,5.731,5.731,0,0,1,.666-2.972c1.02-1.656,3.716-2.73,5.563-2.932a9.741,9.741,0,0,0,2.852-.613,13.367,13.367,0,0,0-.6-2.519l-14.014,4.441a9.743,9.743,0,0,0-6.566,11.432l1.585,6.194a6.126,6.126,0,0,0,.886,2.391,10.506,10.506,0,0,0,2.053-2.122,8.724,8.724,0,0,0,2.43-4.87c.038-.593-.031-1.192.049-1.781a1.961,1.961,0,0,1,.86-1.489,1.6,1.6,0,0,1,1.537.048,3.725,3.725,0,0,1,1.932,3,6.682,6.682,0,0,1-.183,2.365c-.236.623-.642.84-1.108,1.33-1.223,1.285-1.842,3.293-.475,4.768a3.316,3.316,0,0,0,1.025.695,11.072,11.072,0,0,0,4.214.841l4.079.3.978.072A4.492,4.492,0,0,0,1181.827,1385.966Z" transform="translate(-163.403 -815.068)" fill="#bf9b8e" opacity="0.4"/>
    <path id="Path_2003" data-name="Path 2003" d="M1131.762,1352.012a8.549,8.549,0,0,1,1.02-3.707,4.792,4.792,0,0,1,2.907-2.391,1.339,1.339,0,0,0,.507-.185,1.233,1.233,0,0,0,.3-.421c1.585-2.937,4.935-3.565,7.981-3.969a40.876,40.876,0,0,1,6.227-.462c1.977.045,3.943-.429,5.948-.449,1.616-.016,3.107-.05,4.524.914a2.807,2.807,0,0,1-.135,5.03,7.932,7.932,0,0,1-2.669.836,67.181,67.181,0,0,0-8.5,1.52,15.379,15.379,0,0,0-6.916,4.268c-2.426,2.555-4.58,5.522-5.363,8.956-.175.767-.384,1.682-1.121,1.959-1.576.592-2.927-2-3.4-3.086a16.319,16.319,0,0,1-1.319-5.925A27.853,27.853,0,0,1,1131.762,1352.012Z" transform="translate(-142.653 -796.176)" fill="#382424"/>
    <ellipse id="Ellipse_386" data-name="Ellipse 386" cx="31.612" cy="10.276" rx="31.612" ry="10.276" transform="translate(1000.392 702.554)" fill="#b8e3e2"/>
    <path id="Rectangle_1193" data-name="Rectangle 1193" d="M0,0H13.219a0,0,0,0,1,0,0V17.2a2.833,2.833,0,0,1-2.833,2.833H2.833A2.833,2.833,0,0,1,0,17.2V0A0,0,0,0,1,0,0Z" transform="translate(1025.395 693.816)" fill="#b8e3e2"/>
    <path id="Path_2004" data-name="Path 2004" d="M1232.944,1517.164l-6.5-.479c-2.589,1.333.437,4.573.39,6.505l3.261.039S1229.728,1517.848,1232.944,1517.164Z" transform="translate(-219.747 -941.27)" fill="#a58877" opacity="0.4"/>
    <path id="Path_2005" data-name="Path 2005" d="M1089.11,1566.271a78.272,78.272,0,0,1-95.664-55.615l-.081-.308c-3.189-12.255-19.7-14.36-25.687-3.2a78.2,78.2,0,0,0,88.993,112.5C1088.183,1611.329,1098.39,1563.821,1089.11,1566.271Z" transform="translate(0 -927.415)" fill="#b8e3e2"/>
    <path id="Path_2006" data-name="Path 2006" d="M1275.892,1695.1l6.228,10.392,37.811,11.831,8.707,5.367a3.862,3.862,0,0,1,1.675,2.184l2.067,6.933a3.088,3.088,0,0,1-.222,2.311l-.777,1.487a3.862,3.862,0,0,1-3.424,2.074h-1.229a2.881,2.881,0,0,1-2.816-2.271l-.931-4.305-7.4-6.673-36.534-1.687a6.973,6.973,0,0,1-5.129-2.615l-12.74-15.959Z" transform="translate(-249.199 -1088.132)" fill="#ffcebd"/>
    <path id="Path_2007" data-name="Path 2007" d="M1056.671,1699.174c16.823-4.442,27.572-20.052,32.528-33.267-5.023-4.653-12.6-6.546-19.627-6.281-8.738.329-17.132,3.3-25.721,4.943a84.957,84.957,0,0,1-30.79.177c-6.5-1.163-13.127-3.236-17.911-7.789-6.017-5.727-8.112-14.295-10.651-22.2a141.25,141.25,0,0,0-12.439-27.912c-1.98-3.4-4.157-6.774-7.211-9.254a15.37,15.37,0,0,0-1.588-1.128,78.21,78.21,0,0,0,93.41,102.711Z" transform="translate(0 -1006.941)" opacity="0.15" style="isolation: isolate"/>
    <g id="Group_3181" data-name="Group 3181" transform="translate(1133.241 650.533)">
      <path id="Path_2008" data-name="Path 2008" d="M1963.235,1959.466a11.4,11.4,0,0,0,.665-4.536l-1.283.553a10.416,10.416,0,0,1-.637,3.637C1961.7,1959.909,1962.953,1960.249,1963.235,1959.466Z" transform="translate(-1959.164 -1952.554)" fill="#fff"/>
      <path id="Path_2009" data-name="Path 2009" d="M1946.305,1965.558c-.284.789.973,1.129,1.256.346a11.444,11.444,0,0,0,.681-4.252l-1.309.564A10.466,10.466,0,0,1,1946.305,1965.558Z" transform="translate(-1946.264 -1958.088)" fill="#fff"/>
      <path id="Path_2010" data-name="Path 2010" d="M1977.655,1952.682c-.285.788.973,1.129,1.255.346a11.4,11.4,0,0,0,.648-4.82l-1.278.551A10.358,10.358,0,0,1,1977.655,1952.682Z" transform="translate(-1972.065 -1947.021)" fill="#fff"/>
      <path id="Path_2011" data-name="Path 2011" d="M1993.33,1946.25c-.285.789.973,1.129,1.255.346a11.378,11.378,0,0,0,.629-5.1l-1.275.55A10.308,10.308,0,0,1,1993.33,1946.25Z" transform="translate(-1984.965 -1941.494)" fill="#fff"/>
    </g>
    <g id="Group_3182" data-name="Group 3182" transform="translate(1106.962 710.456)">
      <path id="Path_2012" data-name="Path 2012" d="M1827.115,2298.838a11.472,11.472,0,0,0,3.665-2.314l-1.244-.644a10.464,10.464,0,0,1-2.99,1.787C1825.765,2297.974,1826.34,2299.142,1827.115,2298.838Z" transform="translate(-1821.151 -2293.138)" fill="#fff"/>
      <path id="Path_2013" data-name="Path 2013" d="M1798.731,2283.1a11.51,11.51,0,0,0,3.409-2.077l-1.264-.654a10.545,10.545,0,0,1-2.714,1.56C1797.382,2282.242,1797.956,2283.41,1798.731,2283.1Z" transform="translate(-1797.791 -2280.374)" fill="#fff"/>
      <path id="Path_2014" data-name="Path 2014" d="M1815.207,2288.127a10.5,10.5,0,0,1-2.852,1.674c-.781.307-.206,1.475.569,1.17a11.489,11.489,0,0,0,3.542-2.193Z" transform="translate(-1809.471 -2286.756)" fill="#fff"/>
      <path id="Path_2015" data-name="Path 2015" d="M1841.306,2306.706a11.451,11.451,0,0,0,3.788-2.436l-1.229-.635a10.45,10.45,0,0,1-3.128,1.9C1839.957,2305.842,1840.531,2307.01,1841.306,2306.706Z" transform="translate(-1832.83 -2299.521)" fill="#fff"/>
    </g>
    <path id="Path_2016" data-name="Path 2016" d="M2738.207,1854.361a10.626,10.626,0,0,0,1.514,10.457l26.254,33.555a12.119,12.119,0,0,1,2.068,7.759l-.063.821s3.342,7.557,5.514,6.781c4.344-1.552,8.967-12.281,7.523-14.375-.692-1-3.558-2.718-6.438-4.524-8.4-5.271-20.669-35.377-20.669-35.377l16.221-21.222-23.868-4.239Z" transform="translate(-1464.18 -1202.471)" fill="#ffcebd"/>
    <path id="Path_2017" data-name="Path 2017" d="M2796.4,1904.858c-8.4-5.271-20.669-35.377-20.669-35.377l16.221-21.222c-.488.638-8.817-1.559-9.824-1.81-5.824-1.449-9.913,3.049-12.612,7.592-2.181,3.67-6.233,10.463-5.438,14.838a16.9,16.9,0,0,0,3.04,6.3c4.944,7.245,9.064,15.29,15.768,21.181,5.619,4.938,9.25,9.529,9.25,17.2-.337,2.908-1.172,4.608.414,7.409a11.477,11.477,0,0,0,2.316,2.828.982.982,0,0,0,.45-.044c4.344-1.552,8.966-12.281,7.523-14.375C2802.143,1908.378,2799.278,1906.665,2796.4,1904.858Z" transform="translate(-1485.998 -1212.495)" fill="#a58877" opacity="0.4"/>
    <path id="Path_2018" data-name="Path 2018" d="M2880.642,2186.1s4.106,8.721-8.885,9.752a98.685,98.685,0,0,1-1.367,10.142s-4.869,3.742-6.433,5.739c-.846,1.079-.245,2.714.873,3.509h0a2.883,2.883,0,0,0,2.323.154l6.763-1.258a4.656,4.656,0,0,0,2.959-1.9l14.217-20.241-9.9-7.041Z" transform="translate(-1567.957 -1491.369)" fill="url(#linear-gradient-12)"/>
    <path id="Path_2019" data-name="Path 2019" d="M2891.293,2219.2l-14.059,20.017a4.657,4.657,0,0,1-2.96,1.9l-6.763,1.258a3.139,3.139,0,0,1-2.023-.016,3.139,3.139,0,0,0,.929,1.072,2.885,2.885,0,0,0,2.323.154l6.763-1.258a4.658,4.658,0,0,0,2.959-1.9l14.217-20.241Z" transform="translate(-1569.547 -1519.559)" fill="#fff"/>
    <path id="Path_2020" data-name="Path 2020" d="M2831.632,1922.755s0,38.292,1.517,54.547c.611,6.552-1.3,6.612-2.324,8.111l.745,9.218,15.246-2.315c.9-6.17-2.086-6.161-2.606-10.353-2.472-19.921,6.262-48.166,2.163-57.846C2844.881,1920.6,2831.632,1922.755,2831.632,1922.755Z" transform="translate(-1541.018 -1274.997)" fill="#ffcebd"/>
    <path id="Path_2021" data-name="Path 2021" d="M2846.94,1981.967c-2.472-19.921,6.262-48.165,2.163-57.846-.76-1.794-4.575-2.112-8.133-1.993.312,2.53.736,5.068,1.026,7.569,1.335,11.489-.272,23.112.109,34.672.174,5.248.753,10.543-.133,15.718-.863,5.038-3.4,10.089-7.829,12.6l.157,1.951,15.246-2.315C2850.445,1986.15,2847.46,1986.159,2846.94,1981.967Z" transform="translate(-1543.749 -1275.001)" fill="#a58877" opacity="0.4"/>
    <path id="Path_2022" data-name="Path 2022" d="M2755.183,2282.039s-7.19,9.95-15.635-1.883c0,0-7.944,7.75-17.275,9.2a2.779,2.779,0,0,0-2.355,2.746h0a1.861,1.861,0,0,0,1.862,1.86h34.657v-12.141Z" transform="translate(-1449.741 -1569.739)" fill="url(#linear-gradient-13)"/>
    <path id="Path_2023" data-name="Path 2023" d="M2721.779,2343.28h34.657v1.753h-34.657a1.861,1.861,0,0,1-1.862-1.86,2.766,2.766,0,0,1,.177-.974A1.857,1.857,0,0,0,2721.779,2343.28Z" transform="translate(-1449.741 -1620.811)" fill="#fff"/>
    <path id="Path_2024" data-name="Path 2024" d="M2756.405,1596.771c3.587,4.317,4.007,15.52,2.768,20.17-.9,3.381-2.754,6.354-3.9,9.637-2.967,8.531,1.132,20.795,2.664,29.444-8.716-1.574-18.437,2.4-27.249,2.693-6.013.2-11.984-1.023-17.807-2.533,1.075-7.895,3.5-14.938,5.935-22.368,2.42-7.4,2.507-16.486,2.565-24.2q.046-6.142-.508-12.269c-.22-2.425.261-7.546,1-7.694,1.94-.388,4.739,1.209,6.654,1.7l13.908,3.54c3.472.884,9.441-1.649,12.366.395A8.182,8.182,0,0,1,2756.405,1596.771Z" transform="translate(-1443.953 -1001.283)" fill="#24245b"/>
    <path id="Path_2025" data-name="Path 2025" d="M2756.406,1597.186a8.2,8.2,0,0,0-1.6-1.491c-2.925-2.043-8.894.489-12.366-.395l-13.908-3.54c-1.446-.368-3.4-1.367-5.1-1.668a7.374,7.374,0,0,0-1.819,1.368c-.157.165-.3.344-.442.521a26.742,26.742,0,0,0-.292,5.776q.554,6.117.508,12.269c-.058,7.715-.145,16.8-2.565,24.2-2.431,7.43-4.859,14.473-5.935,22.368,5.823,1.51,11.794,2.735,17.807,2.533.083,0,.167-.011.25-.015-.008-.407-.024-.809-.044-1.2a102.236,102.236,0,0,1,2.349-27.751c1.179-5.24,2.99-11.055,6.963-14.9,3.638-3.519,9.2-2.487,13.749-4.409a13.376,13.376,0,0,0,5.555-4.423C2759.069,1602.761,2758.091,1599.214,2756.406,1597.186Z" transform="translate(-1443.954 -1001.697)" fill="#383873"/>
    <path id="Path_2026" data-name="Path 2026" d="M2457.762,1111.714,2442.5,1089.62l-1.576-4.79a3.13,3.13,0,0,0-2.849-2.148l-2.685-.108-1.069.01-12.333-2.459h0c-.052,1.3,1.064,2.1,2.232,2.506l6.208,2.387v4.55a4.218,4.218,0,0,0,2.479,3.841l4.113,1.862,1.592,1.552,14.6,26.28C2453.64,1123.878,2457.762,1111.714,2457.762,1111.714Z" transform="translate(-1204.543 -581.906)" fill="#ffcebd"/>
    <path id="Path_2027" data-name="Path 2027" d="M2834.232,1049.073c.477-2.173,1.806-4.368,1.074-6.469-.6-1.726-2.381-2.694-3.653-4.007-2.163-2.234-2.847-5.523-2.878-8.631a23.306,23.306,0,0,0-.208-4.5c-.619-2.991-2.84-5.345-4.416-7.963a11.015,11.015,0,0,0-1.8-2.567,8.442,8.442,0,0,0-3.036-1.552q-3.626-1.255-7.306-2.348a5.843,5.843,0,0,0-3.654-.257,5.9,5.9,0,0,0-2.191,1.777l-3.794,4.261a4.464,4.464,0,0,0-2.161,2.8c-.458,1.819,0,3.725.371,5.563s.637,3.827-.159,5.526-2.567,2.9-2.966,4.73c-.389,1.789.658,3.538,1.6,5.108,1.617,2.7,3.1,5.79,2.465,8.868-.382,1.863-1.517,3.529-1.752,5.416a5.982,5.982,0,0,0,2.4,5.491c1,.715,2.3,1.212,2.737,2.359.327.861.042,1.832.185,2.742.3,1.927,2.493,3.082,4.44,2.942a12.1,12.1,0,0,0,5.339-2.25,11.531,11.531,0,0,1,5.361-2.183c3.775-.178,7.412,3.28,10.957,1.971,2.868-1.059,3.829-4.684,3.6-7.731S2833.579,1052.057,2834.232,1049.073Z" transform="translate(-1513.488 -524.653)" fill="#382424"/>
    <rect id="Rectangle_1194" data-name="Rectangle 1194" width="15.404" height="17.701" transform="translate(1297.25 520.049)" fill="#ffcebd"/>
    <path id="Path_2028" data-name="Path 2028" d="M2876.443,1169.844c.863,2.875-17.132,1.285-14.907-.731,3.707-3.358,2.45-17.265,2.45-17.265h10.253S2874.753,1164.213,2876.443,1169.844Z" transform="translate(-1566.136 -640.945)" fill="#ffcebd"/>
    <path id="Path_2029" data-name="Path 2029" d="M2823.477,1053.046c-2.769,1.352-7.542-2.84-7.367-9.776,0-.144-.523-.333-1.039-.484a.725.725,0,0,1-.427-1.069c3.078-5.074,2.563-13.648,4.544-15.628,4.759-4.754,24.359,0,24.359,0V1037.5C2843.547,1047.924,2823.477,1053.046,2823.477,1053.046Z" transform="translate(-1527.615 -535.685)" fill="#ffcebd"/>
    <path id="Path_2030" data-name="Path 2030" d="M2589.29,1179.332l-6.376-.131a6.789,6.789,0,0,0-4.191,1.34l-9.021,6.711a6.861,6.861,0,0,1-2.351,1.131l-16.205,4.26a2.722,2.722,0,0,1-2.923-1.072l-13.186-17.56-6.579,4.249,8.529,20.522a9.886,9.886,0,0,0,7.668,5.717c7.281,1.005,19.969,1.816,26.78-3.243,0,0,1.3.443-.184,4.868a11.4,11.4,0,0,0,2.252,11.26l.047.052-5.292,35.03s9.534,3.905,37.507.349v-6.338l11.952-54.875-10.681-10.162-15.258,5.335Z" transform="translate(-1292.169 -659.19)" fill="#20c3c5"/>
    <path id="Path_2031" data-name="Path 2031" d="M2860.965,1057.226c-.132-.434-.27-.867-.407-1.3q-.883-2.782-1.766-5.563a27.886,27.886,0,0,0-1.75-4.568c-.688-1.31-1.58-2.5-2.264-3.815a13.834,13.834,0,0,1-1.085-9.863c.278-1.038.678-2.045.865-3.1a25.608,25.608,0,0,0-.489-8.618,15.782,15.782,0,0,0-3.241-7.065c-2.652-3.174-6.557-4.9-10.467-5.961-1.715-.467-3.383-1.116-5.072-1.572a19.019,19.019,0,0,0-6.428-.054c-2.549.255-8.707.835-9.882,3.751-.846,2.1.383,3.542,2.138,4.552,2.1,1.21,3.794,1.645,5.459,3.566,3.574,4.122,4.709,9.88,4.841,15.186a24.625,24.625,0,0,0,.351,4.756,6.278,6.278,0,0,0,2.458,3.96c2.724,1.791,5.68,1.308,8.167,3.745,3.761,3.683,4.371,9.4,6.3,14.3a26.5,26.5,0,0,0,5.9,9,6.3,6.3,0,0,0,3.587,2.113c4.378.458,4.049-7.324,3.644-9.941A25.326,25.326,0,0,0,2860.965,1057.226Z" transform="translate(-1531.045 -520.469)" fill="#a58877" opacity="0.4"/>
    <g id="Group_3183" data-name="Group 3183" transform="translate(1292.12 499.432)">
      <rect id="Rectangle_1195" data-name="Rectangle 1195" width="10.104" height="0.717" transform="translate(0 0)" fill="#191c3c"/>
    </g>
    <g id="Group_3184" data-name="Group 3184" transform="translate(1289.129 499.432)">
      <rect id="Rectangle_1196" data-name="Rectangle 1196" width="0.798" height="0.717" transform="translate(0 0)" fill="#191c3c"/>
    </g>
    <g id="Group_3185" data-name="Group 3185" transform="translate(1289.568 494.796)">
      <path id="Path_2032" data-name="Path 2032" d="M2830.934,1070.746c-1.415,0-1.456-4.484-1.456-5s.041-4.995,1.456-4.995,1.455,4.484,1.455,4.995S2832.347,1070.746,2830.934,1070.746Zm-.031-9.279c-.214.141-.707,1.692-.707,4.283s.492,4.143.768,4.283c.214-.14.706-1.692.706-4.283S2831.178,1061.608,2830.9,1061.467Z" transform="translate(-2829.478 -1060.756)" fill="#191c3c"/>
    </g>
    <path id="Path_2033" data-name="Path 2033" d="M2458.664,1113.869l-2.576-3.35a1.9,1.9,0,0,1,.35-2.669h0a1.906,1.906,0,0,1,2.671.35l2.576,3.35a1.9,1.9,0,0,1-.35,2.669h0A1.906,1.906,0,0,1,2458.664,1113.869Z" transform="translate(-1232.285 -604.403)" fill="#ffcebd"/>
    <path id="Path_2034" data-name="Path 2034" d="M2878.808,1216.019l-.808.282c-1.145.4-1.839,3.376-2.726,4.258-1.4,1.392-3.519,2.081-4.958,3.564a8.86,8.86,0,0,0-2.683,5.714c-.153,4.665,4.026,9.315,5,13.835,1.751,8.137-7.363,9.392-13.724,7.87a2.82,2.82,0,0,0,.266,2.673,11.621,11.621,0,0,0,1.861,2.092c4.681,4.7,5.158,10.469,6.233,16.629,1.216,6.969-3.689,8.945-5.836,14.876a7.263,7.263,0,0,0-.267.982c4.57-.169,9.985-.59,16.371-1.4v-6.338l11.952-54.875Z" transform="translate(-1563.941 -693.769)" fill="#191c3c" opacity="0.2"/>
    <path id="Path_2035" data-name="Path 2035" d="M2850.608,1200.823l-4.632,4.394v5.843l2.316-5.335,2.316,6.86,5.286-2.287,2.715,6.947,9.746-16.6-1.271-3.3-13.987,10.924-1.2-6.606Z" transform="translate(-1553.487 -678.394)" fill="#191c3c" opacity="0.4"/>
    <path id="Path_2036" data-name="Path 2036" d="M2850.608,1187.892l-4.632,4.394v5.844l2.316-3.049,2.316,4.573h5.286l3.052,4.065,9.409-13.719-1.271-5.589-13.987,10.924-1.2-6.605Z" transform="translate(-1553.487 -667.749)" fill="#f5f7f9"/>
    <g id="Group_3186" data-name="Group 3186" transform="translate(1236.29 517.871)">
      <path id="Path_2037" data-name="Path 2037" d="M2571.258,1220.318a11.4,11.4,0,0,0,2.252,11.26l.047.052-.509,3.367a7.7,7.7,0,0,1,4.091-4.155,6.158,6.158,0,0,1-5.1-5.9c0-3.163,3.948-8.239.027-10.646a4.828,4.828,0,0,0-1.636-.554c-4-.767-8.346.07-12.124,1.459a28.572,28.572,0,0,1-4.734,1.589c-3.256.583-6.49-.609-9.214-2.326a24.337,24.337,0,0,1-6.8-5.907,27.585,27.585,0,0,1-3.515-8.3c-.783-2.685-1.441-5.961-2.965-8.334-.565-.88-.221-.762-1.151-.421a15.354,15.354,0,0,0-1.462.95l8.527,20.518a9.888,9.888,0,0,0,7.668,5.717c7.28,1,19.968,1.816,26.779-3.243C2571.442,1215.449,2572.743,1215.892,2571.258,1220.318Z" transform="translate(-2528.467 -1191.254)" fill="#191c3c" opacity="0.2"/>
    </g>
    <path id="Path_2038" data-name="Path 2038" d="M2934.447,1235.563s5.886-.365,7.2,11.686l-3.97,36.692-10.934,30.506h-6.178l6.178-33.014.152-35.586a10.512,10.512,0,0,1,7.55-10.284Z" transform="translate(-1614.876 -709.856)" fill="#20c3c5"/>
    <path id="Path_2039" data-name="Path 2039" d="M2908.071,1681.68l-2.63,5.794a3.343,3.343,0,0,0,.677,3.742l1.1,1.107.482,5.477c.119,1.354.434,2.908,1.726,2.908h0a2.46,2.46,0,0,0,2.39-1.875l.024-.1,1.668-1.8a3.892,3.892,0,0,0,.915-1.666l.612-2.343a4.135,4.135,0,0,0,.083-1.693l-1.246-9.556Z" transform="translate(-1602.181 -1077.089)" fill="#ffcebd"/>
    <path id="Path_2040" data-name="Path 2040" d="M2948.2,1321.137c.581-11.081,6.4-21.3,7.629-32.326.434-3.9.288-7.85.892-11.724.862-5.519,3.222-10.72,4.084-16.239.875-5.6.206-11.407-.387-17.158,1.6,1.454,3.331,4.374,3.972,10.25l-3.97,36.691-10.935,30.506Z" transform="translate(-1637.621 -716.546)" fill="#191c3c" opacity="0.2"/>
    <path id="Path_2041" data-name="Path 2041" d="M2864.229,1050.238c-.16-.425-.325-.848-.49-1.27l-2.121-5.438a27.905,27.905,0,0,0-2.042-4.446c-.771-1.263-1.738-2.4-2.505-3.661a13.833,13.833,0,0,1-1.719-9.772c.21-1.054.545-2.085.663-3.153a25.6,25.6,0,0,0-1.043-8.568,15.789,15.789,0,0,0-3.691-6.842c-2.851-3-6.859-4.463-10.83-5.274-1.742-.356-3.448-.9-5.164-1.241a19.011,19.011,0,0,0-6.418.36c-2.526.419-8.634,1.394-9.619,4.38-1.314,3.983,3.7,4.8,6.341,5.828,2.324.907,3.1,2.16,4.173,4.435a27.6,27.6,0,0,1,2.443,8.6c.4,3.519.178,7.309,2.051,10.315,1.342,2.154,3.521,3.563,5.42,5.173a13.541,13.541,0,0,1,2.59,2.708c1.873,2.8,1.048,7.822,1.123,11.017a35.4,35.4,0,0,0,1.237,10.215,17.778,17.778,0,0,0,5.705,8.265,7.793,7.793,0,0,0,2.713,1.533,9.152,9.152,0,0,0,3.952-.02,7.889,7.889,0,0,0,2.877-.893,7.742,7.742,0,0,0,2.579-3.219c2.479-4.788,4.018-10.324,2.85-15.587A25.348,25.348,0,0,0,2864.229,1050.238Z" transform="translate(-1531.314 -516.286)" fill="#382424"/>
    <path id="Path_2042" data-name="Path 2042" d="M2912.159,1053.68a25.426,25.426,0,0,0-1.076-3.443c-.16-.425-.326-.848-.49-1.27l-2.121-5.438a27.909,27.909,0,0,0-2.042-4.446c-.771-1.263-1.738-2.4-2.505-3.661a13.833,13.833,0,0,1-1.719-9.772c.21-1.054.545-2.085.663-3.153a25.6,25.6,0,0,0-1.043-8.568,15.79,15.79,0,0,0-3.691-6.842c-2.851-3-6.859-4.463-10.83-5.274-1.742-.356-3.448-.9-5.164-1.241a18.2,18.2,0,0,0-6.176.321,14.7,14.7,0,0,1,1.7,1.715c2.676,3.2,4.1,7.225,5.487,11.157s2.823,7.958,5.515,11.141c1.221,1.444,2.674,2.682,3.876,4.142,4.806,5.844,4.849,14.1,5.132,21.658.2,5.295.643,10.662,2.485,15.631a24.14,24.14,0,0,0,3.979,6.993,7.3,7.3,0,0,0,2.595-.843,7.738,7.738,0,0,0,2.579-3.219C2911.789,1064.479,2913.327,1058.943,2912.159,1053.68Z" transform="translate(-1578.168 -516.284)" fill="#382424"/>
  </g>
</svg>
